<?xml version="1.0" standalone="no"?>
<!DOCTYPE svg PUBLIC "-//W3C//DTD SVG 20010904//EN"
 "http://www.w3.org/TR/2001/REC-SVG-20010904/DTD/svg10.dtd">
<svg version="1.0" xmlns="http://www.w3.org/2000/svg"
 width="1701.000000pt" height="426.000000pt" viewBox="0 0 1701.000000 426.000000"
 preserveAspectRatio="xMidYMid meet">

<g transform="translate(0.000000,426.000000) scale(0.100000,-0.100000)"
fill="#000000" stroke="none">
<path d="M9350 4245 c-36 -8 -102 -33 -146 -55 -113 -55 -213 -161 -277 -292
-84 -171 -115 -321 -124 -605 l-6 -193 -139 0 -138 0 0 -75 0 -75 140 0 140 0
0 -645 0 -644 -137 -3 -138 -3 -3 -72 -3 -73 461 0 460 0 0 75 0 75 -150 0
-150 0 0 645 0 645 205 0 205 0 0 75 0 75 -206 0 -206 0 5 328 c4 244 9 345
21 397 34 152 79 230 153 267 42 20 63 23 160 23 61 0 115 -3 119 -7 4 -5 0
-16 -9 -26 -51 -56 -74 -190 -43 -250 19 -36 65 -78 99 -91 39 -15 122 -14
160 3 44 19 83 63 102 115 52 149 -45 307 -230 372 -79 27 -235 34 -325 14z"/>
<path d="M14570 4155 l0 -75 150 0 150 0 -1 -597 0 -598 -22 30 c-46 63 -139
145 -200 174 -104 51 -175 64 -312 58 -176 -7 -295 -53 -427 -162 -246 -203
-354 -600 -262 -965 63 -250 252 -462 472 -530 149 -46 342 -46 467 1 92 34
202 126 251 208 10 17 22 31 26 31 4 0 8 -49 8 -110 l0 -110 310 0 311 0 -3
73 -3 72 -142 3 -143 3 0 1284 0 1285 -315 0 -315 0 0 -75z m-22 -1173 c103
-33 180 -99 231 -199 116 -230 116 -701 -1 -941 -38 -79 -123 -168 -188 -200
-156 -74 -384 -41 -472 70 -103 131 -152 408 -128 738 23 320 100 475 263 531
72 25 216 25 295 1z"/>
<path d="M2482 4109 c-160 -80 -161 -318 -1 -400 50 -25 149 -25 205 0 164 74
163 328 -1 402 -56 26 -148 25 -203 -2z"/>
<path d="M6746 3562 c5 -5 47 -38 94 -74 102 -78 280 -260 372 -379 185 -238
355 -572 451 -886 l25 -82 -64 -37 c-219 -128 -384 -394 -451 -731 -24 -123
-24 -422 0 -551 49 -257 158 -477 312 -627 138 -135 270 -191 445 -189 117 1
190 22 297 85 134 80 276 258 355 445 64 156 108 360 108 512 0 52 -1 53 -361
595 -199 298 -366 545 -371 548 -12 7 53 227 109 369 154 391 373 714 638 939
73 63 40 43 -445 -269 -234 -151 -432 -274 -440 -274 -8 0 -252 138 -542 307
-470 274 -566 328 -532 299z"/>
<path d="M1028 3200 c-165 -30 -290 -109 -370 -233 l-33 -52 -3 123 -3 122
-309 0 -310 0 0 -75 0 -75 140 0 140 0 0 -1165 0 -1165 -140 0 -140 0 0 -75 0
-75 460 0 460 0 0 75 0 75 -150 0 -150 0 0 557 0 558 34 -50 c132 -196 374
-277 635 -215 133 32 230 88 337 194 103 104 163 206 210 362 26 84 28 101 28
279 0 221 -13 286 -89 440 -94 194 -255 326 -460 380 -73 19 -223 27 -287 15z
m164 -151 c153 -33 236 -138 285 -363 14 -65 18 -129 18 -316 0 -258 -9 -335
-55 -462 -66 -180 -162 -248 -350 -248 -227 0 -376 132 -441 391 -15 61 -22
129 -26 249 -11 365 73 600 252 706 84 49 209 66 317 43z"/>
<path d="M4279 3199 c-166 -24 -301 -114 -391 -261 l-33 -53 -3 138 -3 137
-309 0 -310 0 0 -75 0 -75 140 0 140 0 0 -650 0 -650 -140 0 -140 0 0 -75 0
-75 435 0 435 0 0 75 0 75 -125 0 -125 0 0 353 c0 471 13 571 90 733 69 144
184 227 335 241 120 11 225 -42 269 -137 20 -44 21 -62 24 -617 l3 -573 -126
0 -125 0 0 -75 0 -75 430 0 430 0 0 75 0 75 -134 0 -135 0 -4 553 c-4 593 -5
604 -58 712 -33 68 -117 150 -184 181 -100 46 -252 63 -386 43z"/>
<path d="M6130 3204 c-14 -2 -52 -9 -85 -15 -171 -31 -348 -148 -461 -306
-122 -169 -183 -427 -154 -653 37 -297 195 -530 434 -645 120 -57 182 -69 356
-70 135 0 164 3 230 24 94 29 130 48 205 104 64 48 131 130 172 212 27 53 73
180 73 201 0 14 -87 44 -125 44 -16 0 -23 -10 -33 -47 -21 -78 -79 -186 -133
-246 -108 -122 -315 -177 -500 -133 -112 26 -179 82 -230 191 -52 109 -70 204
-76 388 l-6 167 567 0 c446 0 566 3 566 13 0 6 -5 53 -11 102 -41 337 -231
577 -514 650 -61 15 -229 27 -275 19z m237 -173 c98 -50 159 -182 178 -383 l7
-78 -373 0 -372 0 7 58 c23 203 105 352 222 404 90 39 254 39 331 -1z"/>
<path d="M2140 3085 l0 -74 138 -3 137 -3 3 -647 2 -648 -140 0 -140 0 0 -75
0 -75 450 0 450 0 0 75 0 75 -145 0 -145 0 0 725 0 725 -305 0 -305 0 0 -75z"/>
<path d="M10378 3140 c-79 -14 -200 -58 -268 -97 -37 -22 -104 -77 -155 -128
-79 -78 -98 -104 -143 -195 -58 -120 -77 -185 -93 -328 -21 -179 10 -360 86
-517 99 -205 270 -342 493 -397 121 -29 323 -29 437 1 373 97 605 417 605 834
0 340 -143 609 -396 744 -124 66 -204 85 -374 89 -80 1 -166 -1 -192 -6z m281
-146 c135 -30 208 -104 260 -259 42 -127 55 -260 48 -495 -11 -368 -84 -543
-255 -612 -50 -20 -74 -23 -193 -23 -136 0 -136 0 -205 35 -143 73 -203 214
-224 523 -11 158 1 377 26 490 19 83 61 181 99 230 81 107 264 152 444 111z"/>
<path d="M12328 3140 c-79 -14 -200 -58 -268 -97 -37 -22 -104 -77 -155 -128
-79 -78 -98 -104 -143 -195 -58 -120 -77 -185 -93 -328 -21 -179 10 -360 86
-517 99 -205 270 -342 493 -397 121 -29 323 -29 437 1 373 97 605 417 605 834
0 340 -144 610 -396 744 -124 66 -204 85 -374 89 -80 1 -166 -1 -192 -6z m281
-146 c135 -30 208 -104 260 -259 42 -127 55 -260 48 -495 -11 -368 -84 -543
-255 -612 -50 -20 -74 -23 -193 -23 -136 0 -136 0 -205 35 -143 73 -203 214
-224 523 -11 158 1 377 26 490 19 83 61 181 99 230 81 107 264 152 444 111z"/>
<path d="M16232 3140 c-311 -56 -486 -265 -451 -540 16 -133 100 -245 242
-325 38 -21 172 -75 298 -121 316 -115 353 -136 385 -219 20 -52 15 -144 -9
-191 -59 -114 -236 -172 -443 -146 -199 26 -297 127 -340 350 -8 41 -14 89
-14 108 l0 34 -65 0 -65 0 1 -152 c1 -84 4 -207 8 -273 l6 -119 75 -23 c202
-61 505 -84 672 -50 253 52 426 195 467 385 42 200 -37 362 -233 477 -50 29
-180 80 -391 152 -256 88 -313 126 -335 225 -29 131 34 237 165 277 137 42
329 22 426 -45 73 -50 130 -163 151 -300 l12 -74 62 0 62 0 -5 243 c-2 133 -6
247 -8 254 -3 10 -109 37 -250 63 -81 15 -357 21 -423 10z"/>
</g>
</svg>
